<svg width="163" height="170" viewBox="0 0 163 170" fill="none" xmlns="http://www.w3.org/2000/svg">
<path fill-rule="evenodd" clip-rule="evenodd" d="M15 0C6.71573 0 0 6.71573 0 15V155C0 163.284 6.71573 170 15 170H148C156.284 170 163 163.284 163 155V15C163 6.71573 156.284 0 148 0H15ZM132.017 32.8654C138.963 32.8654 144.647 38.917 144.647 46.3133V127C144.647 134.397 138.963 140.448 132.017 140.448H30.9826C24.0365 140.448 18.3533 134.397 18.3533 127V46.3133C18.3533 38.917 24.0365 32.8654 30.9826 32.8654H132.017ZM81.5 79.9328L132.017 46.3133H30.9826L81.5 79.9328ZM30.9826 127H132.017V59.7611L81.5 93.3807L30.9826 59.7611V127Z" fill="white"/>
</svg>
